STARTFONT 2.1
COMMENT
COMMENT Converted from TrueType font "courbd.ttf" by "ttf2bdf.exe 2.2".
COMMENT
FONT -FreeType-Courier New-Bold-R-Normal--14-100-100-100-P-69-ISO10646-1
SIZE 10 100 100
FONTBOUNDINGBOX 10 16 -1 -4
STARTPROPERTIES 19
FOUNDRY "FreeType"
FAMILY_NAME "Courier New"
WEIGHT_NAME "Bold"
SLANT "R"
SETWIDTH_NAME "Normal"
ADD_STYLE_NAME ""
PIXEL_SIZE 14
POINT_SIZE 100
RESOLUTION_X 100
RESOLUTION_Y 100
SPACING "P"
AVERAGE_WIDTH 69
CHARSET_REGISTRY "ISO10646"
CHARSET_ENCODING "1"
FONT_ASCENT 11
FONT_DESCENT 4
COPYRIGHT "Typeface © The Monotype Corporation plc. Data © The Monotype Corporation plc/Type Solutions Inc. 1990-1992. All Rights Reserved"
_TTF_FONTFILE "courbd.ttf"
_TTF_PSNAME "CourierNewPS-BoldMT"
ENDPROPERTIES
CHARS 191
STARTCHAR 0020
ENCODING 32
SWIDTH 576 0
DWIDTH 8 0
BBX 1 1 0 0
BITMAP
00
ENDCHAR
STARTCHAR 0021
ENCODING 33
SWIDTH 576 0
DWIDTH 8 0
BBX 2 9 3 0
BITMAP
C0
C0
C0
C0
C0
C0
C0
00
C0
ENDCHAR
STARTCHAR 0022
ENCODING 34
SWIDTH 576 0
DWIDTH 8 0
BBX 3 4 2 4
BITMAP
A0
A0
A0
A0
ENDCHAR
STARTCHAR 0023
ENCODING 35
SWIDTH 576 0
DWIDTH 8 0
BBX 7 9 0 0
BITMAP
6C
6C
6C
FE
6C
FE
6C
6C
6C
ENDCHAR
STARTCHAR 0024
ENCODING 36
SWIDTH 576 0
DWIDTH 8 0
BBX 6 11 1 -2
BITMAP
10
7C
CC
C0
F8
3C
CC
CC
F8
10
10
ENDCHAR
STARTCHAR 0025
ENCODING 37
SWIDTH 576 0
DWIDTH 8 0
BBX 6 9 1 0
BITMAP
60
90
90
6C
30
D8
24
24
18
ENDCHAR
STARTCHAR 0026
ENCODING 38
SWIDTH 576 0
DWIDTH 8 0
BBX 7 8 0 0
BITMAP
3C
60
60
60
F6
DC
CC
7E
ENDCHAR
STARTCHAR 0027
ENCODING 39
SWIDTH 576 0
DWIDTH 8 0
BBX 1 4 3 4
BITMAP
80
80
80
80
ENDCHAR
STARTCHAR 0028
ENCODING 40
SWIDTH 576 0
DWIDTH 8 0
BBX 3 11 3 -2
BITMAP
20
60
40
C0
C0
C0
C0
C0
40
60
20
ENDCHAR
STARTCHAR 0029
ENCODING 41
SWIDTH 576 0
DWIDTH 8 0
BBX 3 11 2 -2
BITMAP
80
C0
40
60
60
60
60
60
40
C0
80
ENDCHAR
STARTCHAR 002A
ENCODING 42
SWIDTH 576 0
DWIDTH 8 0
BBX 6 6 1 3
BITMAP
30
30
FC
78
78
48
ENDCHAR
STARTCHAR 002B
ENCODING 43
SWIDTH 576 0
DWIDTH 8 0
BBX 7 7 1 0
BITMAP
10
10
10
FE
10
10
10
ENDCHAR
STARTCHAR 002C
ENCODING 44
SWIDTH 576 0
DWIDTH 8 0
BBX 3 4 3 -2
BITMAP
60
40
C0
80
ENDCHAR
STARTCHAR 002D
ENCODING 45
SWIDTH 576 0
DWIDTH 8 0
BBX 6 1 1 3
BITMAP
FC
ENDCHAR
STARTCHAR 002E
ENCODING 46
SWIDTH 576 0
DWIDTH 8 0
BBX 2 2 3 0
BITMAP
C0
C0
ENDCHAR
STARTCHAR 002F
ENCODING 47
SWIDTH 576 0
DWIDTH 8 0
BBX 6 12 1 -2
BITMAP
0C
0C
18
18
18
30
30
60
60
60
C0
C0
ENDCHAR
STARTCHAR 0030
ENCODING 48
SWIDTH 576 0
DWIDTH 8 0
BBX 6 9 1 0
BITMAP
78
CC
CC
CC
CC
CC
CC
CC
78
ENDCHAR
STARTCHAR 0031
ENCODING 49
SWIDTH 576 0
DWIDTH 8 0
BBX 6 9 1 0
BITMAP
30
F0
30
30
30
30
30
30
FC
ENDCHAR
STARTCHAR 0032
ENCODING 50
SWIDTH 576 0
DWIDTH 8 0
BBX 6 9 1 0
BITMAP
78
CC
CC
0C
18
38
60
C0
FC
ENDCHAR
STARTCHAR 0033
ENCODING 51
SWIDTH 576 0
DWIDTH 8 0
BBX 6 9 1 0
BITMAP
78
8C
0C
0C
38
0C
0C
8C
78
ENDCHAR
STARTCHAR 0034
ENCODING 52
SWIDTH 576 0
DWIDTH 8 0
BBX 7 9 0 0
BITMAP
1C
1C
3C
2C
6C
4C
FE
0C
3E
ENDCHAR
STARTCHAR 0035
ENCODING 53
SWIDTH 576 0
DWIDTH 8 0
BBX 6 9 1 0
BITMAP
7C
60
60
78
4C
0C
0C
8C
78
ENDCHAR
STARTCHAR 0036
ENCODING 54
SWIDTH 576 0
DWIDTH 8 0
BBX 6 9 1 0
BITMAP
3C
60
C0
D8
EC
CC
CC
CC
78
ENDCHAR
STARTCHAR 0037
ENCODING 55
SWIDTH 576 0
DWIDTH 8 0
BBX 6 9 1 0
BITMAP
FC
8C
0C
18
18
18
38
30
30
ENDCHAR
STARTCHAR 0038
ENCODING 56
SWIDTH 576 0
DWIDTH 8 0
BBX 6 9 1 0
BITMAP
78
CC
CC
CC
78
CC
CC
CC
78
ENDCHAR
STARTCHAR 0039
ENCODING 57
SWIDTH 576 0
DWIDTH 8 0
BBX 6 9 1 0
BITMAP
78
C8
CC
CC
DC
6C
0C
18
F0
ENDCHAR
STARTCHAR 003A
ENCODING 58
SWIDTH 576 0
DWIDTH 8 0
BBX 2 6 3 0
BITMAP
C0
C0
00
00
C0
C0
ENDCHAR
STARTCHAR 003B
ENCODING 59
SWIDTH 576 0
DWIDTH 8 0
BBX 3 8 3 -2
BITMAP
60
60
00
00
60
40
80
80
ENDCHAR
STARTCHAR 003C
ENCODING 60
SWIDTH 576 0
DWIDTH 8 0
BBX 8 7 0 0
BITMAP
03
0C
30
C0
30
0C
03
ENDCHAR
STARTCHAR 003D
ENCODING 61
SWIDTH 576 0
DWIDTH 8 0
BBX 7 3 0 2
BITMAP
FE
00
FE
ENDCHAR
STARTCHAR 003E
ENCODING 62
SWIDTH 576 0
DWIDTH 8 0
BBX 8 7 0 0
BITMAP
C0
30
0C
03
0C
30
C0
ENDCHAR
STARTCHAR 003F
ENCODING 63
SWIDTH 576 0
DWIDTH 8 0
BBX 5 8 1 0
BITMAP
70
D8
18
38
70
60
00
60
ENDCHAR
STARTCHAR 0040
ENCODING 64
SWIDTH 576 0
DWIDTH 8 0
BBX 6 10 1 -1
BITMAP
38
44
84
9C
A4
A4
9C
80
44
38
ENDCHAR
STARTCHAR 0041
ENCODING 65
SWIDTH 576 0
DWIDTH 8 0
BBX 9 8 0 0
BITMAP
7C00
1C00
3600
3600
3600
7F00
6300
F780
ENDCHAR
STARTCHAR 0042
ENCODING 66
SWIDTH 576 0
DWIDTH 8 0
BBX 7 8 0 0
BITMAP
FC
66
66
7C
66
66
66
FC
ENDCHAR
STARTCHAR 0043
ENCODING 67
SWIDTH 576 0
DWIDTH 8 0
BBX 6 8 1 0
BITMAP
3C
64
C4
C0
C0
C0
64
38
ENDCHAR
STARTCHAR 0044
ENCODING 68
SWIDTH 576 0
DWIDTH 8 0
BBX 7 8 0 0
BITMAP
F8
6C
66
66
66
66
6C
F8
ENDCHAR
STARTCHAR 0045
ENCODING 69
SWIDTH 576 0
DWIDTH 8 0
BBX 7 8 0 0
BITMAP
FE
62
6A
78
68
62
62
FE
ENDCHAR
STARTCHAR 0046
ENCODING 70
SWIDTH 576 0
DWIDTH 8 0
BBX 7 8 0 0
BITMAP
FE
62
6A
78
68
60
60
F8
ENDCHAR
STARTCHAR 0047
ENCODING 71
SWIDTH 576 0
DWIDTH 8 0
BBX 7 8 1 0
BITMAP
7C
C4
C4
C0
DE
CC
CC
78
ENDCHAR
STARTCHAR 0048
ENCODING 72
SWIDTH 576 0
DWIDTH 8 0
BBX 8 8 0 0
BITMAP
E7
66
66
7E
66
66
66
E7
ENDCHAR
STARTCHAR 0049
ENCODING 73
SWIDTH 576 0
DWIDTH 8 0
BBX 6 8 1 0
BITMAP
FC
30
30
30
30
30
30
FC
ENDCHAR
STARTCHAR 004A
ENCODING 74
SWIDTH 576 0
DWIDTH 8 0
BBX 8 8 0 0
BITMAP
7F
0C
0C
0C
CC
CC
CC
F8
ENDCHAR
STARTCHAR 004B
ENCODING 75
SWIDTH 576 0
DWIDTH 8 0
BBX 8 8 0 0
BITMAP
F7
66
6C
78
7C
66
66
F3
ENDCHAR
STARTCHAR 004C
ENCODING 76
SWIDTH 576 0
DWIDTH 8 0
BBX 7 8 0 0
BITMAP
F0
60
60
60
60
62
62
FE
ENDCHAR
STARTCHAR 004D
ENCODING 77
SWIDTH 576 0
DWIDTH 8 0
BBX 9 8 -1 0
BITMAP
E380
7700
7700
7700
6B00
6B00
6300
F780
ENDCHAR
STARTCHAR 004E
ENCODING 78
SWIDTH 576 0
DWIDTH 8 0
BBX 8 8 0 0
BITMAP
EF
66
76
76
6E
6E
66
F6
ENDCHAR
STARTCHAR 004F
ENCODING 79
SWIDTH 576 0
DWIDTH 8 0
BBX 6 8 1 0
BITMAP
78
CC
CC
CC
CC
CC
CC
78
ENDCHAR
STARTCHAR 0050
ENCODING 80
SWIDTH 576 0
DWIDTH 8 0
BBX 7 8 0 0
BITMAP
FC
66
66
66
7C
60
60
F8
ENDCHAR
STARTCHAR 0051
ENCODING 81
SWIDTH 576 0
DWIDTH 8 0
BBX 6 10 1 -2
BITMAP
78
CC
CC
CC
CC
CC
CC
78
34
38
ENDCHAR
STARTCHAR 0052
ENCODING 82
SWIDTH 576 0
DWIDTH 8 0
BBX 8 8 0 0
BITMAP
FC
66
66
66
7C
6C
66
F3
ENDCHAR
STARTCHAR 0053
ENCODING 83
SWIDTH 576 0
DWIDTH 8 0
BBX 6 8 1 0
BITMAP
7C
CC
C0
70
38
0C
CC
F8
ENDCHAR
STARTCHAR 0054
ENCODING 84
SWIDTH 576 0
DWIDTH 8 0
BBX 6 8 1 0
BITMAP
FC
B4
B4
30
30
30
30
78
ENDCHAR
STARTCHAR 0055
ENCODING 85
SWIDTH 576 0
DWIDTH 8 0
BBX 8 8 0 0
BITMAP
E7
66
66
66
66
66
66
3C
ENDCHAR
STARTCHAR 0056
ENCODING 86
SWIDTH 576 0
DWIDTH 8 0
BBX 9 8 0 0
BITMAP
F780
6300
6300
3600
3600
3600
1C00
1C00
ENDCHAR
STARTCHAR 0057
ENCODING 87
SWIDTH 576 0
DWIDTH 8 0
BBX 9 8 -1 0
BITMAP
F780
6300
6B00
7F00
7700
3600
3600
3600
ENDCHAR
STARTCHAR 0058
ENCODING 88
SWIDTH 576 0
DWIDTH 8 0
BBX 8 8 0 0
BITMAP
EF
66
3C
18
18
3C
66
F7
ENDCHAR
STARTCHAR 0059
ENCODING 89
SWIDTH 576 0
DWIDTH 8 0
BBX 8 8 0 0
BITMAP
EF
66
24
3C
18
18
18
7E
ENDCHAR
STARTCHAR 005A
ENCODING 90
SWIDTH 576 0
DWIDTH 8 0
BBX 6 8 1 0
BITMAP
FC
8C
98
30
30
64
C4
FC
ENDCHAR
STARTCHAR 005B
ENCODING 91
SWIDTH 576 0
DWIDTH 8 0
BBX 4 11 3 -2
BITMAP
F0
C0
C0
C0
C0
C0
C0
C0
C0
C0
F0
ENDCHAR
STARTCHAR 005C
ENCODING 92
SWIDTH 576 0
DWIDTH 8 0
BBX 6 12 1 -2
BITMAP
C0
C0
60
60
60
30
30
18
18
18
0C
0C
ENDCHAR
STARTCHAR 005D
ENCODING 93
SWIDTH 576 0
DWIDTH 8 0
BBX 4 11 1 -2
BITMAP
F0
30
30
30
30
30
30
30
30
30
F0
ENDCHAR
STARTCHAR 005E
ENCODING 94
SWIDTH 576 0
DWIDTH 8 0
BBX 5 4 2 5
BITMAP
20
50
50
88
ENDCHAR
STARTCHAR 005F
ENCODING 95
SWIDTH 576 0
DWIDTH 8 0
BBX 9 1 -1 -4
BITMAP
FF80
ENDCHAR
STARTCHAR 0060
ENCODING 96
SWIDTH 576 0
DWIDTH 8 0
BBX 2 2 3 7
BITMAP
80
40
ENDCHAR
STARTCHAR 0061
ENCODING 97
SWIDTH 576 0
DWIDTH 8 0
BBX 7 6 1 0
BITMAP
78
0C
7C
CC
CC
7E
ENDCHAR
STARTCHAR 0062
ENCODING 98
SWIDTH 576 0
DWIDTH 8 0
BBX 7 9 0 0
BITMAP
E0
60
60
6C
76
66
66
76
EC
ENDCHAR
STARTCHAR 0063
ENCODING 99
SWIDTH 576 0
DWIDTH 8 0
BBX 6 6 1 0
BITMAP
7C
C4
C4
C0
C4
78
ENDCHAR
STARTCHAR 0064
ENCODING 100
SWIDTH 576 0
DWIDTH 8 0
BBX 7 9 1 0
BITMAP
1C
0C
0C
6C
DC
CC
CC
DC
6E
ENDCHAR
STARTCHAR 0065
ENCODING 101
SWIDTH 576 0
DWIDTH 8 0
BBX 6 6 1 0
BITMAP
78
CC
FC
C0
C4
78
ENDCHAR
STARTCHAR 0066
ENCODING 102
SWIDTH 576 0
DWIDTH 8 0
BBX 8 9 0 0
BITMAP
1F
30
30
FE
30
30
30
30
FE
ENDCHAR
STARTCHAR 0067
ENCODING 103
SWIDTH 576 0
DWIDTH 8 0
BBX 7 9 1 -3
BITMAP
6E
DC
CC
CC
DC
6C
0C
0C
78
ENDCHAR
STARTCHAR 0068
ENCODING 104
SWIDTH 576 0
DWIDTH 8 0
BBX 8 9 0 0
BITMAP
E0
60
60
7C
66
66
66
66
E7
ENDCHAR
STARTCHAR 0069
ENCODING 105
SWIDTH 576 0
DWIDTH 8 0
BBX 6 9 1 0
BITMAP
30
30
00
F0
30
30
30
30
FC
ENDCHAR
STARTCHAR 006A
ENCODING 106
SWIDTH 576 0
DWIDTH 8 0
BBX 6 12 0 -3
BITMAP
18
18
00
FC
0C
0C
0C
0C
0C
0C
0C
F8
ENDCHAR
STARTCHAR 006B
ENCODING 107
SWIDTH 576 0
DWIDTH 8 0
BBX 8 9 0 0
BITMAP
E0
60
60
6E
6C
78
7C
66
EF
ENDCHAR
STARTCHAR 006C
ENCODING 108
SWIDTH 576 0
DWIDTH 8 0
BBX 8 9 0 0
BITMAP
78
18
18
18
18
18
18
18
FF
ENDCHAR
STARTCHAR 006D
ENCODING 109
SWIDTH 576 0
DWIDTH 8 0
BBX 10 6 -1 0
BITMAP
FF00
6D80
6D80
6D80
6D80
EDC0
ENDCHAR
STARTCHAR 006E
ENCODING 110
SWIDTH 576 0
DWIDTH 8 0
BBX 8 6 0 0
BITMAP
FC
66
66
66
66
E7
ENDCHAR
STARTCHAR 006F
ENCODING 111
SWIDTH 576 0
DWIDTH 8 0
BBX 6 6 1 0
BITMAP
78
CC
CC
CC
CC
78
ENDCHAR
STARTCHAR 0070
ENCODING 112
SWIDTH 576 0
DWIDTH 8 0
BBX 7 9 0 -3
BITMAP
EC
76
66
66
76
6C
60
60
F8
ENDCHAR
STARTCHAR 0071
ENCODING 113
SWIDTH 576 0
DWIDTH 8 0
BBX 7 9 1 -3
BITMAP
6E
DC
CC
CC
DC
6C
0C
0C
3E
ENDCHAR
STARTCHAR 0072
ENCODING 114
SWIDTH 576 0
DWIDTH 8 0
BBX 7 6 0 0
BITMAP
F6
3A
30
30
30
FE
ENDCHAR
STARTCHAR 0073
ENCODING 115
SWIDTH 576 0
DWIDTH 8 0
BBX 6 6 1 0
BITMAP
7C
CC
F0
3C
CC
F8
ENDCHAR
STARTCHAR 0074
ENCODING 116
SWIDTH 576 0
DWIDTH 8 0
BBX 6 8 1 0
BITMAP
60
60
F8
60
60
60
64
38
ENDCHAR
STARTCHAR 0075
ENCODING 117
SWIDTH 576 0
DWIDTH 8 0
BBX 8 6 0 0
BITMAP
EE
66
66
66
66
3F
ENDCHAR
STARTCHAR 0076
ENCODING 118
SWIDTH 576 0
DWIDTH 8 0
BBX 7 6 0 0
BITMAP
EE
6C
6C
28
38
38
ENDCHAR
STARTCHAR 0077
ENCODING 119
SWIDTH 576 0
DWIDTH 8 0
BBX 9 6 -1 0
BITMAP
E380
6B00
7F00
3600
3600
2200
ENDCHAR
STARTCHAR 0078
ENCODING 120
SWIDTH 576 0
DWIDTH 8 0
BBX 8 6 0 0
BITMAP
E7
66
3C
3C
66
E7
ENDCHAR
STARTCHAR 0079
ENCODING 121
SWIDTH 576 0
DWIDTH 8 0
BBX 8 9 0 -3
BITMAP
F7
66
64
3C
38
18
30
30
F8
ENDCHAR
STARTCHAR 007A
ENCODING 122
SWIDTH 576 0
DWIDTH 8 0
BBX 6 6 1 0
BITMAP
FC
98
30
60
C4
FC
ENDCHAR
STARTCHAR 007B
ENCODING 123
SWIDTH 576 0
DWIDTH 8 0
BBX 4 11 2 -2
BITMAP
30
60
60
60
60
C0
60
60
60
60
30
ENDCHAR
STARTCHAR 007C
ENCODING 124
SWIDTH 576 0
DWIDTH 8 0
BBX 2 11 3 -2
BITMAP
C0
C0
C0
C0
C0
C0
C0
C0
C0
C0
C0
ENDCHAR
STARTCHAR 007D
ENCODING 125
SWIDTH 576 0
DWIDTH 8 0
BBX 4 11 1 -2
BITMAP
C0
60
60
60
60
30
60
60
60
60
C0
ENDCHAR
STARTCHAR 007E
ENCODING 126
SWIDTH 576 0
DWIDTH 8 0
BBX 5 3 1 2
BITMAP
40
A8
10
ENDCHAR
STARTCHAR 00A0
ENCODING 160
SWIDTH 576 0
DWIDTH 8 0
BBX 1 1 0 0
BITMAP
00
ENDCHAR
STARTCHAR 00A1
ENCODING 161
SWIDTH 576 0
DWIDTH 8 0
BBX 2 9 3 -3
BITMAP
C0
00
C0
C0
C0
C0
C0
C0
C0
ENDCHAR
STARTCHAR 00A2
ENCODING 162
SWIDTH 576 0
DWIDTH 8 0
BBX 6 11 1 -1
BITMAP
10
10
3C
64
C4
C0
C0
64
38
10
10
ENDCHAR
STARTCHAR 00A3
ENCODING 163
SWIDTH 576 0
DWIDTH 8 0
BBX 7 8 0 0
BITMAP
38
64
60
F8
30
30
66
FE
ENDCHAR
STARTCHAR 00A4
ENCODING 164
SWIDTH 576 0
DWIDTH 8 0
BBX 8 7 0 0
BITMAP
C3
FF
66
66
66
FF
C3
ENDCHAR
STARTCHAR 00A5
ENCODING 165
SWIDTH 576 0
DWIDTH 8 0
BBX 8 8 0 0
BITMAP
F7
66
34
7E
18
7E
18
7E
ENDCHAR
STARTCHAR 00A6
ENCODING 166
SWIDTH 576 0
DWIDTH 8 0
BBX 2 11 3 -2
BITMAP
C0
C0
C0
C0
C0
00
C0
C0
C0
C0
C0
ENDCHAR
STARTCHAR 00A7
ENCODING 167
SWIDTH 576 0
DWIDTH 8 0
BBX 6 10 1 -1
BITMAP
38
48
C8
A0
98
64
14
4C
48
70
ENDCHAR
STARTCHAR 00A8
ENCODING 168
SWIDTH 576 0
DWIDTH 8 0
BBX 4 1 2 7
BITMAP
90
ENDCHAR
STARTCHAR 00A9
ENCODING 169
SWIDTH 576 0
DWIDTH 8 0
BBX 8 8 0 0
BITMAP
3C
42
9D
A5
A1
9D
42
3C
ENDCHAR
STARTCHAR 00AA
ENCODING 170
SWIDTH 576 0
DWIDTH 8 0
BBX 5 4 1 5
BITMAP
E0
70
90
78
ENDCHAR
STARTCHAR 00AB
ENCODING 171
SWIDTH 576 0
DWIDTH 8 0
BBX 7 6 1 0
BITMAP
22
44
88
88
44
22
ENDCHAR
STARTCHAR 00AC
ENCODING 172
SWIDTH 576 0
DWIDTH 8 0
BBX 7 4 0 0
BITMAP
FE
02
02
02
ENDCHAR
STARTCHAR 00AD
ENCODING 173
SWIDTH 576 0
DWIDTH 8 0
BBX 6 1 1 3
BITMAP
FC
ENDCHAR
STARTCHAR 00AE
ENCODING 174
SWIDTH 576 0
DWIDTH 8 0
BBX 8 8 0 0
BITMAP
3C
42
BD
95
99
B5
42
3C
ENDCHAR
STARTCHAR 00AF
ENCODING 175
SWIDTH 576 0
DWIDTH 8 0
BBX 9 1 -1 9
BITMAP
FF80
ENDCHAR
STARTCHAR 00B0
ENCODING 176
SWIDTH 576 0
DWIDTH 8 0
BBX 4 4 2 5
BITMAP
60
90
90
60
ENDCHAR
STARTCHAR 00B1
ENCODING 177
SWIDTH 576 0
DWIDTH 8 0
BBX 7 9 1 0
BITMAP
10
10
10
FE
10
10
10
00
FE
ENDCHAR
STARTCHAR 00B2
ENCODING 178
SWIDTH 576 0
DWIDTH 8 0
BBX 3 5 2 4
BITMAP
E0
20
20
40
E0
ENDCHAR
STARTCHAR 00B3
ENCODING 179
SWIDTH 576 0
DWIDTH 8 0
BBX 4 5 2 4
BITMAP
F0
10
60
10
F0
ENDCHAR
STARTCHAR 00B4
ENCODING 180
SWIDTH 576 0
DWIDTH 8 0
BBX 2 2 3 7
BITMAP
40
80
ENDCHAR
STARTCHAR 00B5
ENCODING 181
SWIDTH 576 0
DWIDTH 8 0
BBX 8 9 0 -3
BITMAP
EE
66
66
66
66
7F
60
60
60
ENDCHAR
STARTCHAR 00B6
ENCODING 182
SWIDTH 576 0
DWIDTH 8 0
BBX 7 10 1 -1
BITMAP
7E
D4
D4
D4
74
14
14
14
14
7E
ENDCHAR
STARTCHAR 00B7
ENCODING 183
SWIDTH 576 0
DWIDTH 8 0
BBX 2 2 3 3
BITMAP
C0
C0
ENDCHAR
STARTCHAR 00B8
ENCODING 184
SWIDTH 576 0
DWIDTH 8 0
BBX 3 5 3 -4
BITMAP
40
40
60
20
E0
ENDCHAR
STARTCHAR 00B9
ENCODING 185
SWIDTH 576 0
DWIDTH 8 0
BBX 3 5 3 4
BITMAP
C0
40
40
40
E0
ENDCHAR
STARTCHAR 00BA
ENCODING 186
SWIDTH 576 0
DWIDTH 8 0
BBX 5 4 2 5
BITMAP
70
88
88
70
ENDCHAR
STARTCHAR 00BB
ENCODING 187
SWIDTH 576 0
DWIDTH 8 0
BBX 7 6 0 0
BITMAP
88
44
22
22
44
88
ENDCHAR
STARTCHAR 00BC
ENCODING 188
SWIDTH 576 0
DWIDTH 8 0
BBX 8 9 0 0
BITMAP
C0
42
44
48
EE
16
2F
02
07
ENDCHAR
STARTCHAR 00BD
ENCODING 189
SWIDTH 576 0
DWIDTH 8 0
BBX 8 9 0 0
BITMAP
C0
40
42
4C
FF
21
42
04
0F
ENDCHAR
STARTCHAR 00BE
ENCODING 190
SWIDTH 576 0
DWIDTH 8 0
BBX 8 9 0 0
BITMAP
F0
10
62
1C
F6
26
4F
02
07
ENDCHAR
STARTCHAR 00BF
ENCODING 191
SWIDTH 576 0
DWIDTH 8 0
BBX 5 9 1 -3
BITMAP
60
00
60
60
E0
C0
C0
D8
70
ENDCHAR
STARTCHAR 00C0
ENCODING 192
SWIDTH 576 0
DWIDTH 8 0
BBX 9 11 0 0
BITMAP
1000
0800
0000
7C00
1C00
3600
3600
3600
7F00
6300
F780
ENDCHAR
STARTCHAR 00C1
ENCODING 193
SWIDTH 576 0
DWIDTH 8 0
BBX 9 11 0 0
BITMAP
0800
1000
0000
7C00
1C00
3600
3600
3600
7F00
6300
F780
ENDCHAR
STARTCHAR 00C2
ENCODING 194
SWIDTH 576 0
DWIDTH 8 0
BBX 9 11 0 0
BITMAP
1800
2400
0000
7C00
1C00
3600
3600
3600
7F00
6300
F780
ENDCHAR
STARTCHAR 00C3
ENCODING 195
SWIDTH 576 0
DWIDTH 8 0
BBX 9 11 0 0
BITMAP
3400
2C00
0000
7C00
1C00
3600
3600
3600
7F00
6300
F780
ENDCHAR
STARTCHAR 00C4
ENCODING 196
SWIDTH 576 0
DWIDTH 8 0
BBX 9 10 0 0
BITMAP
2400
0000
7C00
1C00
3600
3600
3600
7F00
6300
F780
ENDCHAR
STARTCHAR 00C5
ENCODING 197
SWIDTH 576 0
DWIDTH 8 0
BBX 9 12 0 0
BITMAP
1C00
1400
1C00
0000
7C00
1C00
3600
3600
3600
7F00
6300
F780
ENDCHAR
STARTCHAR 00C6
ENCODING 198
SWIDTH 576 0
DWIDTH 8 0
BBX 9 8 -1 0
BITMAP
3F80
1C80
2D00
2F00
2D00
7C00
4C80
FF80
ENDCHAR
STARTCHAR 00C7
ENCODING 199
SWIDTH 576 0
DWIDTH 8 0
BBX 6 12 1 -4
BITMAP
3C
64
C4
C0
C0
C0
64
38
10
18
08
38
ENDCHAR
STARTCHAR 00C8
ENCODING 200
SWIDTH 576 0
DWIDTH 8 0
BBX 7 11 0 0
BITMAP
10
08
00
FE
62
6A
78
68
62
62
FE
ENDCHAR
STARTCHAR 00C9
ENCODING 201
SWIDTH 576 0
DWIDTH 8 0
BBX 7 11 0 0
BITMAP
08
10
00
FE
62
6A
78
68
62
62
FE
ENDCHAR
STARTCHAR 00CA
ENCODING 202
SWIDTH 576 0
DWIDTH 8 0
BBX 7 11 0 0
BITMAP
18
24
00
FE
62
6A
78
68
62
62
FE
ENDCHAR
STARTCHAR 00CB
ENCODING 203
SWIDTH 576 0
DWIDTH 8 0
BBX 7 10 0 0
BITMAP
24
00
FE
62
6A
78
68
62
62
FE
ENDCHAR
STARTCHAR 00CC
ENCODING 204
SWIDTH 576 0
DWIDTH 8 0
BBX 6 11 1 0
BITMAP
20
10
00
FC
30
30
30
30
30
30
FC
ENDCHAR
STARTCHAR 00CD
ENCODING 205
SWIDTH 576 0
DWIDTH 8 0
BBX 6 11 1 0
BITMAP
10
20
00
FC
30
30
30
30
30
30
FC
ENDCHAR
STARTCHAR 00CE
ENCODING 206
SWIDTH 576 0
DWIDTH 8 0
BBX 6 11 1 0
BITMAP
30
48
00
FC
30
30
30
30
30
30
FC
ENDCHAR
STARTCHAR 00CF
ENCODING 207
SWIDTH 576 0
DWIDTH 8 0
BBX 6 10 1 0
BITMAP
48
00
FC
30
30
30
30
30
30
FC
ENDCHAR
STARTCHAR 00D0
ENCODING 208
SWIDTH 576 0
DWIDTH 8 0
BBX 7 8 0 0
BITMAP
F8
6C
66
F6
66
66
6C
F8
ENDCHAR
STARTCHAR 00D1
ENCODING 209
SWIDTH 576 0
DWIDTH 8 0
BBX 8 11 0 0
BITMAP
1A
16
00
EF
66
76
76
6E
6E
66
F6
ENDCHAR
STARTCHAR 00D2
ENCODING 210
SWIDTH 576 0
DWIDTH 8 0
BBX 6 11 1 0
BITMAP
20
10
00
78
CC
CC
CC
CC
CC
CC
78
ENDCHAR
STARTCHAR 00D3
ENCODING 211
SWIDTH 576 0
DWIDTH 8 0
BBX 6 11 1 0
BITMAP
10
20
00
78
CC
CC
CC
CC
CC
CC
78
ENDCHAR
STARTCHAR 00D4
ENCODING 212
SWIDTH 576 0
DWIDTH 8 0
BBX 6 11 1 0
BITMAP
30
48
00
78
CC
CC
CC
CC
CC
CC
78
ENDCHAR
STARTCHAR 00D5
ENCODING 213
SWIDTH 576 0
DWIDTH 8 0
BBX 6 11 1 0
BITMAP
D0
B0
00
78
CC
CC
CC
CC
CC
CC
78
ENDCHAR
STARTCHAR 00D6
ENCODING 214
SWIDTH 576 0
DWIDTH 8 0
BBX 6 10 1 0
BITMAP
48
00
78
CC
CC
CC
CC
CC
CC
78
ENDCHAR
STARTCHAR 00D7
ENCODING 215
SWIDTH 576 0
DWIDTH 8 0
BBX 6 6 1 1
BITMAP
84
48
30
30
48
84
ENDCHAR
STARTCHAR 00D8
ENCODING 216
SWIDTH 576 0
DWIDTH 8 0
BBX 6 10 1 -1
BITMAP
0C
7C
D8
DC
FC
FC
EC
6C
F8
C0
ENDCHAR
STARTCHAR 00D9
ENCODING 217
SWIDTH 576 0
DWIDTH 8 0
BBX 8 11 0 0
BITMAP
10
08
00
E7
66
66
66
66
66
66
3C
ENDCHAR
STARTCHAR 00DA
ENCODING 218
SWIDTH 576 0
DWIDTH 8 0
BBX 8 11 0 0
BITMAP
08
10
00
E7
66
66
66
66
66
66
3C
ENDCHAR
STARTCHAR 00DB
ENCODING 219
SWIDTH 576 0
DWIDTH 8 0
BBX 8 11 0 0
BITMAP
18
24
00
E7
66
66
66
66
66
66
3C
ENDCHAR
STARTCHAR 00DC
ENCODING 220
SWIDTH 576 0
DWIDTH 8 0
BBX 8 10 0 0
BITMAP
24
00
E7
66
66
66
66
66
66
3C
ENDCHAR
STARTCHAR 00DD
ENCODING 221
SWIDTH 576 0
DWIDTH 8 0
BBX 8 11 0 0
BITMAP
08
10
00
EF
66
24
3C
18
18
18
7E
ENDCHAR
STARTCHAR 00DE
ENCODING 222
SWIDTH 576 0
DWIDTH 8 0
BBX 8 8 0 0
BITMAP
F8
60
7E
63
63
7E
60
F8
ENDCHAR
STARTCHAR 00DF
ENCODING 223
SWIDTH 576 0
DWIDTH 8 0
BBX 7 9 0 0
BITMAP
3C
66
66
6C
66
66
66
66
EC
ENDCHAR
STARTCHAR 00E0
ENCODING 224
SWIDTH 576 0
DWIDTH 8 0
BBX 7 9 1 0
BITMAP
20
10
00
78
0C
7C
CC
CC
7E
ENDCHAR
STARTCHAR 00E1
ENCODING 225
SWIDTH 576 0
DWIDTH 8 0
BBX 7 9 1 0
BITMAP
10
20
00
78
0C
7C
CC
CC
7E
ENDCHAR
STARTCHAR 00E2
ENCODING 226
SWIDTH 576 0
DWIDTH 8 0
BBX 7 9 1 0
BITMAP
30
48
00
78
0C
7C
CC
CC
7E
ENDCHAR
STARTCHAR 00E3
ENCODING 227
SWIDTH 576 0
DWIDTH 8 0
BBX 7 9 1 0
BITMAP
68
58
00
78
0C
7C
CC
CC
7E
ENDCHAR
STARTCHAR 00E4
ENCODING 228
SWIDTH 576 0
DWIDTH 8 0
BBX 7 8 1 0
BITMAP
48
00
78
0C
7C
CC
CC
7E
ENDCHAR
STARTCHAR 00E5
ENCODING 229
SWIDTH 576 0
DWIDTH 8 0
BBX 7 10 1 0
BITMAP
70
50
70
00
78
0C
7C
CC
CC
7E
ENDCHAR
STARTCHAR 00E6
ENCODING 230
SWIDTH 576 0
DWIDTH 8 0
BBX 8 6 0 0
BITMAP
7E
1B
7F
D8
D9
7E
ENDCHAR
STARTCHAR 00E7
ENCODING 231
SWIDTH 576 0
DWIDTH 8 0
BBX 6 10 1 -4
BITMAP
7C
C4
C4
C0
C4
78
10
18
08
38
ENDCHAR
STARTCHAR 00E8
ENCODING 232
SWIDTH 576 0
DWIDTH 8 0
BBX 6 9 1 0
BITMAP
20
10
00
78
CC
FC
C0
C4
78
ENDCHAR
STARTCHAR 00E9
ENCODING 233
SWIDTH 576 0
DWIDTH 8 0
BBX 6 9 1 0
BITMAP
10
20
00
78
CC
FC
C0
C4
78
ENDCHAR
STARTCHAR 00EA
ENCODING 234
SWIDTH 576 0
DWIDTH 8 0
BBX 6 9 1 0
BITMAP
30
48
00
78
CC
FC
C0
C4
78
ENDCHAR
STARTCHAR 00EB
ENCODING 235
SWIDTH 576 0
DWIDTH 8 0
BBX 6 8 1 0
BITMAP
48
00
78
CC
FC
C0
C4
78
ENDCHAR
STARTCHAR 00EC
ENCODING 236
SWIDTH 576 0
DWIDTH 8 0
BBX 8 9 0 0
BITMAP
20
10
00
78
18
18
18
18
FF
ENDCHAR
STARTCHAR 00ED
ENCODING 237
SWIDTH 576 0
DWIDTH 8 0
BBX 8 9 0 0
BITMAP
08
10
00
78
18
18
18
18
FF
ENDCHAR
STARTCHAR 00EE
ENCODING 238
SWIDTH 576 0
DWIDTH 8 0
BBX 8 9 0 0
BITMAP
30
48
00
78
18
18
18
18
FF
ENDCHAR
STARTCHAR 00EF
ENCODING 239
SWIDTH 576 0
DWIDTH 8 0
BBX 8 8 0 0
BITMAP
24
00
78
18
18
18
18
FF
ENDCHAR
STARTCHAR 00F0
ENCODING 240
SWIDTH 576 0
DWIDTH 8 0
BBX 6 9 1 0
BITMAP
34
18
2C
7C
CC
CC
CC
CC
78
ENDCHAR
STARTCHAR 00F1
ENCODING 241
SWIDTH 576 0
DWIDTH 8 0
BBX 8 9 0 0
BITMAP
34
2C
00
FC
66
66
66
66
E7
ENDCHAR
STARTCHAR 00F2
ENCODING 242
SWIDTH 576 0
DWIDTH 8 0
BBX 6 9 1 0
BITMAP
20
10
00
78
CC
CC
CC
CC
78
ENDCHAR
STARTCHAR 00F3
ENCODING 243
SWIDTH 576 0
DWIDTH 8 0
BBX 6 9 1 0
BITMAP
10
20
00
78
CC
CC
CC
CC
78
ENDCHAR
STARTCHAR 00F4
ENCODING 244
SWIDTH 576 0
DWIDTH 8 0
BBX 6 9 1 0
BITMAP
30
48
00
78
CC
CC
CC
CC
78
ENDCHAR
STARTCHAR 00F5
ENCODING 245
SWIDTH 576 0
DWIDTH 8 0
BBX 6 9 1 0
BITMAP
68
58
00
78
CC
CC
CC
CC
78
ENDCHAR
STARTCHAR 00F6
ENCODING 246
SWIDTH 576 0
DWIDTH 8 0
BBX 6 8 1 0
BITMAP
48
00
78
CC
CC
CC
CC
78
ENDCHAR
STARTCHAR 00F7
ENCODING 247
SWIDTH 576 0
DWIDTH 8 0
BBX 8 7 0 0
BITMAP
18
00
00
FF
00
00
18
ENDCHAR
STARTCHAR 00F8
ENCODING 248
SWIDTH 576 0
DWIDTH 8 0
BBX 6 8 1 -1
BITMAP
04
78
D8
DC
EC
4C
F8
80
ENDCHAR
STARTCHAR 00F9
ENCODING 249
SWIDTH 576 0
DWIDTH 8 0
BBX 8 9 0 0
BITMAP
10
08
00
EE
66
66
66
66
3F
ENDCHAR
STARTCHAR 00FA
ENCODING 250
SWIDTH 576 0
DWIDTH 8 0
BBX 8 9 0 0
BITMAP
08
10
00
EE
66
66
66
66
3F
ENDCHAR
STARTCHAR 00FB
ENCODING 251
SWIDTH 576 0
DWIDTH 8 0
BBX 8 9 0 0
BITMAP
18
24
00
EE
66
66
66
66
3F
ENDCHAR
STARTCHAR 00FC
ENCODING 252
SWIDTH 576 0
DWIDTH 8 0
BBX 8 8 0 0
BITMAP
24
00
EE
66
66
66
66
3F
ENDCHAR
STARTCHAR 00FD
ENCODING 253
SWIDTH 576 0
DWIDTH 8 0
BBX 8 12 0 -3
BITMAP
08
10
00
F7
66
64
3C
38
18
30
30
F8
ENDCHAR
STARTCHAR 00FE
ENCODING 254
SWIDTH 576 0
DWIDTH 8 0
BBX 7 12 0 -3
BITMAP
E0
60
60
6C
76
66
66
76
6C
60
60
F8
ENDCHAR
STARTCHAR 00FF
ENCODING 255
SWIDTH 576 0
DWIDTH 8 0
BBX 8 11 0 -3
BITMAP
24
00
F7
66
64
3C
38
18
30
30
F8
ENDCHAR
ENDFONT
